{
  "asset": {
    "version": "2.0",
    "generator": "Sketchup glTF Exporter by Evan Prananta."
  },
  "scene": 0,
  "scenes": [
    {
      "nodes": [
        0
      ]
    }
  ],
  "samplers": [
    {
    }
  ],
  "nodes": [
    {
      "name": "root",
      "mesh": 0
    }
  ],
  "materials": [
    {
      "pbrMetallicRoughness": {
        "baseColorTexture": {
          "index": 0
        },
        "metallicFactor": 0.1,
        "roughnessFactor": 0.9
      },
      "name": "tile_1",
      "doubleSided": true,
      "alphaMode": "OPAQUE"
    },
    {
      "pbrMetallicRoughness": {
        "baseColorTexture": {
          "index": 1
        },
        "metallicFactor": 0.1,
        "roughnessFactor": 0.9
      },
      "name": "tile_2_window2_2",
      "doubleSided": true,
      "alphaMode": "BLEND"
    },
    {
      "pbrMetallicRoughness": {
        "baseColorTexture": {
          "index": 2
        },
        "metallicFactor": 0.1,
        "roughnessFactor": 0.9
      },
      "name": "7_1",
      "doubleSided": true,
      "alphaMode": "OPAQUE"
    },
    {
      "pbrMetallicRoughness": {
        "baseColorTexture": {
          "index": 3
        },
        "metallicFactor": 0.1,
        "roughnessFactor": 0.9
      },
      "name": "wall_2_texture",
      "doubleSided": true,
      "alphaMode": "OPAQUE"
    },
    {
      "pbrMetallicRoughness": {
        "baseColorTexture": {
          "index": 4
        },
        "metallicFactor": 0.1,
        "roughnessFactor": 0.9
      },
      "name": "column1",
      "doubleSided": true,
      "alphaMode": "BLEND"
    },
    {
      "pbrMetallicRoughness": {
        "baseColorFactor": [
          0.6121,
          0.6121,
          0.6121,
          1.0
        ],
        "metallicFactor": 0.1,
        "roughnessFactor": 0.5
      },
      "name": "default material",
      "doubleSided": true
    },
    {
      "pbrMetallicRoughness": {
        "baseColorTexture": {
          "index": 5
        },
        "metallicFactor": 0.1,
        "roughnessFactor": 0.9
      },
      "name": "window_glass",
      "doubleSided": true,
      "alphaMode": "BLEND"
    },
    {
      "pbrMetallicRoughness": {
        "baseColorTexture": {
          "index": 6
        },
        "metallicFactor": 0.1,
        "roughnessFactor": 0.9
      },
      "name": "column_2",
      "doubleSided": true,
      "alphaMode": "BLEND"
    },
    {
      "pbrMetallicRoughness": {
        "baseColorTexture": {
          "index": 7
        },
        "metallicFactor": 0.1,
        "roughnessFactor": 0.9
      },
      "name": "tile_window_4",
      "doubleSided": true,
      "alphaMode": "OPAQUE"
    },
    {
      "pbrMetallicRoughness": {
        "baseColorTexture": {
          "index": 8
        },
        "metallicFactor": 0.1,
        "roughnessFactor": 0.9
      },
      "name": "tile_2_window",
      "doubleSided": true,
      "alphaMode": "OPAQUE"
    },
    {
      "pbrMetallicRoughness": {
        "baseColorTexture": {
          "index": 9
        },
        "metallicFactor": 0.1,
        "roughnessFactor": 0.9
      },
      "name": "tile_window",
      "doubleSided": true,
      "alphaMode": "OPAQUE"
    },
    {
      "pbrMetallicRoughness": {
        "baseColorTexture": {
          "index": 10
        },
        "metallicFactor": 0.1,
        "roughnessFactor": 0.9
      },
      "name": "tile_window_3",
      "doubleSided": true,
      "alphaMode": "BLEND"
    },
    {
      "pbrMetallicRoughness": {
        "baseColorTexture": {
          "index": 11
        },
        "metallicFactor": 0.1,
        "roughnessFactor": 0.9
      },
      "name": "tiles",
      "doubleSided": true,
      "alphaMode": "OPAQUE"
    },
    {
      "pbrMetallicRoughness": {
        "baseColorTexture": {
          "index": 12
        },
        "metallicFactor": 0.1,
        "roughnessFactor": 0.9
      },
      "name": "tile_door_2",
      "doubleSided": true,
      "alphaMode": "OPAQUE"
    },
    {
      "pbrMetallicRoughness": {
        "baseColorTexture": {
          "index": 13
        },
        "metallicFactor": 0.1,
        "roughnessFactor": 0.9
      },
      "name": "facade_1",
      "doubleSided": true,
      "alphaMode": "BLEND"
    },
    {
      "pbrMetallicRoughness": {
        "baseColorTexture": {
          "index": 14
        },
        "metallicFactor": 0.1,
        "roughnessFactor": 0.9
      },
      "name": "facade_door",
      "doubleSided": true,
      "alphaMode": "OPAQUE"
    },
    {
      "pbrMetallicRoughness": {
        "baseColorTexture": {
          "index": 15
        },
        "metallicFactor": 0.1,
        "roughnessFactor": 0.9
      },
      "name": "Blinds_Vertical_Pattern",
      "doubleSided": true,
      "alphaMode": "OPAQUE"
    },
    {
      "pbrMetallicRoughness": {
        "baseColorTexture": {
          "index": 16
        },
        "metallicFactor": 0.1,
        "roughnessFactor": 0.9
      },
      "name": "facade_door_2",
      "doubleSided": true,
      "alphaMode": "OPAQUE"
    },
    {
      "pbrMetallicRoughness": {
        "baseColorTexture": {
          "index": 17
        },
        "metallicFactor": 0.1,
        "roughnessFactor": 0.9
      },
      "name": "facade_window_5",
      "doubleSided": true,
      "alphaMode": "OPAQUE"
    },
    {
      "pbrMetallicRoughness": {
        "baseColorTexture": {
          "index": 18
        },
        "metallicFactor": 0.1,
        "roughnessFactor": 0.9
      },
      "name": "door_large",
      "doubleSided": true,
      "alphaMode": "OPAQUE"
    },
    {
      "pbrMetallicRoughness": {
        "baseColorTexture": {
          "index": 19
        },
        "metallicFactor": 0.1,
        "roughnessFactor": 0.9
      },
      "name": "door_glass",
      "doubleSided": true,
      "alphaMode": "OPAQUE"
    },
    {
      "pbrMetallicRoughness": {
        "baseColorFactor": [
          0.0127,
          0.0127,
          0.0127,
          1.0
        ],
        "metallicFactor": 0.1,
        "roughnessFactor": 0.9
      },
      "name": "<Charcoal>",
      "doubleSided": true
    }
  ],
  "images": [
    {
      "bufferView": 0,
      "mimeType": "image/png"
    },
    {
      "bufferView": 1,
      "mimeType": "image/png"
    },
    {
      "bufferView": 2,
      "mimeType": "image/png"
    },
    {
      "bufferView": 3,
      "mimeType": "image/png"
    },
    {
      "bufferView": 4,
      "mimeType": "image/png"
    },
    {
      "bufferView": 5,
      "mimeType": "image/png"
    },
    {
      "bufferView": 6,
      "mimeType": "image/png"
    },
    {
      "bufferView": 7,
      "mimeType": "image/png"
    },
    {
      "bufferView": 8,
      "mimeType": "image/png"
    },
    {
      "bufferView": 9,
      "mimeType": "image/png"
    },
    {
      "bufferView": 10,
      "mimeType": "image/png"
    },
    {
      "bufferView": 11,
      "mimeType": "image/png"
    },
    {
      "bufferView": 12,
      "mimeType": "image/png"
    },
    {
      "bufferView": 13,
      "mimeType": "image/png"
    },
    {
      "bufferView": 14,
      "mimeType": "image/png"
    },
    {
      "bufferView": 15,
      "mimeType": "image/png"
    },
    {
      "bufferView": 16,
      "mimeType": "image/png"
    },
    {
      "bufferView": 17,
      "mimeType": "image/png"
    },
    {
      "bufferView": 18,
      "mimeType": "image/png"
    },
    {
      "bufferView": 19,
      "mimeType": "image/png"
    }
  ],
  "textures": [
    {
      "source": 0,
      "sampler": 0
    },
    {
      "source": 1,
      "sampler": 0
    },
    {
      "source": 2,
      "sampler": 0
    },
    {
      "source": 3,
      "sampler": 0
    },
    {
      "source": 4,
      "sampler": 0
    },
    {
      "source": 5,
      "sampler": 0
    },
    {
      "source": 6,
      "sampler": 0
    },
    {
      "source": 7,
      "sampler": 0
    },
    {
      "source": 8,
      "sampler": 0
    },
    {
      "source": 9,
      "sampler": 0
    },
    {
      "source": 10,
      "sampler": 0
    },
    {
      "source": 11,
      "sampler": 0
    },
    {
      "source": 12,
      "sampler": 0
    },
    {
      "source": 13,
      "sampler": 0
    },
    {
      "source": 14,
      "sampler": 0
    },
    {
      "source": 15,
      "sampler": 0
    },
    {
      "source": 16,
      "sampler": 0
    },
    {
      "source": 17,
      "sampler": 0
    },
    {
      "source": 18,
      "sampler": 0
    },
    {
      "source": 19,
      "sampler": 0
    }
  ],
  "meshes": [
    {
      "primitives": [
        {
          "attributes": {
            "POSITION": 2,
            "NORMAL": 3,
            "TEXCOORD_0": 4
          },
          "indices": 5,
          "mode": 4,
          "material": 0
        },
        {
          "attributes": {
            "POSITION": 2,
            "NORMAL": 3,
            "TEXCOORD_0": 4
          },
          "indices": 6,
          "mode": 4,
          "material": 1
        },
        {
          "attributes": {
            "POSITION": 2,
            "NORMAL": 3,
            "TEXCOORD_0": 4
          },
          "indices": 7,
          "mode": 4,
          "material": 2
        },
        {
          "attributes": {
            "POSITION": 2,
            "NORMAL": 3,
            "TEXCOORD_0": 4
          },
          "indices": 8,
          "mode": 4,
          "material": 3
        },
        {
          "attributes": {
            "POSITION": 2,
            "NORMAL": 3,
            "TEXCOORD_0": 4
          },
          "indices": 9,
          "mode": 4,
          "material": 4
        },
        {
          "attributes": {
            "POSITION": 0,
            "NORMAL": 1
          },
          "indices": 10,
          "mode": 4,
          "material": 5
        },
        {
          "attributes": {
            "POSITION": 2,
            "NORMAL": 3,
            "TEXCOORD_0": 4
          },
          "indices": 11,
          "mode": 4,
          "material": 6
        },
        {
          "attributes": {
            "POSITION": 2,
            "NORMAL": 3,
            "TEXCOORD_0": 4
          },
          "indices": 12,
          "mode": 4,
          "material": 7
        },
        {
          "attributes": {
            "POSITION": 2,
            "NORMAL": 3,
            "TEXCOORD_0": 4
          },
          "indices": 13,
          "mode": 4,
          "material": 8
        },
        {
          "attributes": {
            "POSITION": 2,
            "NORMAL": 3,
            "TEXCOORD_0": 4
          },
          "indices": 14,
          "mode": 4,
          "material": 9
        },
        {
          "attributes": {
            "POSITION": 2,
            "NORMAL": 3,
            "TEXCOORD_0": 4
          },
          "indices": 15,
          "mode": 4,
          "material": 10
        },
        {
          "attributes": {
            "POSITION": 2,
            "NORMAL": 3,
            "TEXCOORD_0": 4
          },
          "indices": 16,
          "mode": 4,
          "material": 11
        },
        {
          "attributes": {
            "POSITION": 2,
            "NORMAL": 3,
            "TEXCOORD_0": 4
          },
          "indices": 17,
          "mode": 4,
          "material": 12
        },
        {
          "attributes": {
            "POSITION": 2,
            "NORMAL": 3,
            "TEXCOORD_0": 4
          },
          "indices": 18,
          "mode": 4,
          "material": 13
        },
        {
          "attributes": {
            "POSITION": 2,
            "NORMAL": 3,
            "TEXCOORD_0": 4
          },
          "indices": 19,
          "mode": 4,
          "material": 14
        },
        {
          "attributes": {
            "POSITION": 2,
            "NORMAL": 3,
            "TEXCOORD_0": 4
          },
          "indices": 20,
          "mode": 4,
          "material": 15
        },
        {
          "attributes": {
            "POSITION": 2,
            "NORMAL": 3,
            "TEXCOORD_0": 4
          },
          "indices": 21,
          "mode": 4,
          "material": 16
        },
        {
          "attributes": {
            "POSITION": 2,
            "NORMAL": 3,
            "TEXCOORD_0": 4
          },
          "indices": 22,
          "mode": 4,
          "material": 17
        },
        {
          "attributes": {
            "POSITION": 2,
            "NORMAL": 3,
            "TEXCOORD_0": 4
          },
          "indices": 23,
          "mode": 4,
          "material": 18
        },
        {
          "attributes": {
            "POSITION": 2,
            "NORMAL": 3,
            "TEXCOORD_0": 4
          },
          "indices": 24,
          "mode": 4,
          "material": 19
        },
        {
          "attributes": {
            "POSITION": 2,
            "NORMAL": 3,
            "TEXCOORD_0": 4
          },
          "indices": 25,
          "mode": 4,
          "material": 20
        },
        {
          "attributes": {
            "POSITION": 0,
            "NORMAL": 1
          },
          "indices": 26,
          "mode": 4,
          "material": 21
        }
      ]
    }
  ],
  "accessors": [
    {
      "bufferView": 20,
      "componentType": 5126,
      "count": 263,
      "type": "VEC3",
      "min": [
        -70.61549164305828,
        -1.8460422722355765e-13,
        -43.00624317320876
      ],
      "max": [
        52.69637133271358,
        31.558772082035183,
        25.96174701632243
      ]
    },
    {
      "bufferView": 21,
      "componentType": 5126,
      "count": 263,
      "type": "VEC3"
    },
    {
      "bufferView": 22,
      "componentType": 5126,
      "count": 4936,
      "type": "VEC3",
      "min": [
        -75.63832028574441,
        -1.8460422722355765e-13,
        -43.00624317320876
      ],
      "max": [
        52.69637133271358,
        44.732484582035184,
        25.96174701632243
      ]
    },
    {
      "bufferView": 23,
      "componentType": 5126,
      "count": 4936,
      "type": "VEC3"
    },
    {
      "bufferView": 24,
      "componentType": 5126,
      "count": 4936,
      "type": "VEC2"
    },
    {
      "bufferView": 26,
      "componentType": 5123,
      "count": 1368,
      "type": "SCALAR"
    },
    {
      "bufferView": 26,
      "componentType": 5123,
      "count": 66,
      "type": "SCALAR",
      "byteOffset": 2736
    },
    {
      "bufferView": 26,
      "componentType": 5123,
      "count": 6054,
      "type": "SCALAR",
      "byteOffset": 2868
    },
    {
      "bufferView": 26,
      "componentType": 5123,
      "count": 879,
      "type": "SCALAR",
      "byteOffset": 14976
    },
    {
      "bufferView": 26,
      "componentType": 5123,
      "count": 48,
      "type": "SCALAR",
      "byteOffset": 16734
    },
    {
      "bufferView": 25,
      "componentType": 5123,
      "count": 678,
      "type": "SCALAR"
    },
    {
      "bufferView": 26,
      "componentType": 5123,
      "count": 159,
      "type": "SCALAR",
      "byteOffset": 16830
    },
    {
      "bufferView": 26,
      "componentType": 5123,
      "count": 36,
      "type": "SCALAR",
      "byteOffset": 17148
    },
    {
      "bufferView": 26,
      "componentType": 5123,
      "count": 21,
      "type": "SCALAR",
      "byteOffset": 17220
    },
    {
      "bufferView": 26,
      "componentType": 5123,
      "count": 399,
      "type": "SCALAR",
      "byteOffset": 17262
    },
    {
      "bufferView": 26,
      "componentType": 5123,
      "count": 12,
      "type": "SCALAR",
      "byteOffset": 18060
    },
    {
      "bufferView": 26,
      "componentType": 5123,
      "count": 48,
      "type": "SCALAR",
      "byteOffset": 18084
    },
    {
      "bufferView": 26,
      "componentType": 5123,
      "count": 462,
      "type": "SCALAR",
      "byteOffset": 18180
    },
    {
      "bufferView": 26,
      "componentType": 5123,
      "count": 15,
      "type": "SCALAR",
      "byteOffset": 19104
    },
    {
      "bufferView": 26,
      "componentType": 5123,
      "count": 36,
      "type": "SCALAR",
      "byteOffset": 19134
    },
    {
      "bufferView": 26,
      "componentType": 5123,
      "count": 48,
      "type": "SCALAR",
      "byteOffset": 19206
    },
    {
      "bufferView": 26,
      "componentType": 5123,
      "count": 12,
      "type": "SCALAR",
      "byteOffset": 19302
    },
    {
      "bufferView": 26,
      "componentType": 5123,
      "count": 15,
      "type": "SCALAR",
      "byteOffset": 19326
    },
    {
      "bufferView": 26,
      "componentType": 5123,
      "count": 6,
      "type": "SCALAR",
      "byteOffset": 19356
    },
    {
      "bufferView": 26,
      "componentType": 5123,
      "count": 6,
      "type": "SCALAR",
      "byteOffset": 19368
    },
    {
      "bufferView": 26,
      "componentType": 5123,
      "count": 12,
      "type": "SCALAR",
      "byteOffset": 19380
    },
    {
      "bufferView": 25,
      "componentType": 5123,
      "count": 3,
      "type": "SCALAR",
      "byteOffset": 1356
    }
  ],
  "bufferViews": [
    {
      "buffer": 0,
      "byteLength": 3820
    },
    {
      "buffer": 0,
      "byteOffset": 3820,
      "byteLength": 223453
    },
    {
      "buffer": 0,
      "byteOffset": 227273,
      "byteLength": 125300
    },
    {
      "buffer": 0,
      "byteOffset": 352573,
      "byteLength": 128875
    },
    {
      "buffer": 0,
      "byteOffset": 481448,
      "byteLength": 105896
    },
    {
      "buffer": 0,
      "byteOffset": 587344,
      "byteLength": 49610
    },
    {
      "buffer": 0,
      "byteOffset": 636954,
      "byteLength": 70772
    },
    {
      "buffer": 0,
      "byteOffset": 707726,
      "byteLength": 61492
    },
    {
      "buffer": 0,
      "byteOffset": 769218,
      "byteLength": 39913
    },
    {
      "buffer": 0,
      "byteOffset": 809131,
      "byteLength": 86549
    },
    {
      "buffer": 0,
      "byteOffset": 895680,
      "byteLength": 114522
    },
    {
      "buffer": 0,
      "byteOffset": 1010202,
      "byteLength": 116129
    },
    {
      "buffer": 0,
      "byteOffset": 1126331,
      "byteLength": 227617
    },
    {
      "buffer": 0,
      "byteOffset": 1353948,
      "byteLength": 422311
    },
    {
      "buffer": 0,
      "byteOffset": 1776259,
      "byteLength": 40649
    },
    {
      "buffer": 0,
      "byteOffset": 1816908,
      "byteLength": 52884
    },
    {
      "buffer": 0,
      "byteOffset": 1869792,
      "byteLength": 32924
    },
    {
      "buffer": 0,
      "byteOffset": 1902716,
      "byteLength": 43047
    },
    {
      "buffer": 0,
      "byteOffset": 1945763,
      "byteLength": 78103
    },
    {
      "buffer": 0,
      "byteOffset": 2023866,
      "byteLength": 156763
    },
    {
      "buffer": 0,
      "byteOffset": 2180640,
      "byteLength": 3156,
      "target": 34962,
      "byteStride": 12
    },
    {
      "buffer": 0,
      "byteOffset": 2183796,
      "byteLength": 3156,
      "target": 34962,
      "byteStride": 12
    },
    {
      "buffer": 0,
      "byteOffset": 2186952,
      "byteLength": 59232,
      "target": 34962,
      "byteStride": 12
    },
    {
      "buffer": 0,
      "byteOffset": 2246184,
      "byteLength": 59232,
      "target": 34962,
      "byteStride": 12
    },
    {
      "buffer": 0,
      "byteOffset": 2305416,
      "byteLength": 39488,
      "target": 34962,
      "byteStride": 8
    },
    {
      "buffer": 0,
      "byteOffset": 2344904,
      "byteLength": 1362,
      "target": 34963
    },
    {
      "buffer": 0,
      "byteOffset": 2346266,
      "byteLength": 19404,
      "target": 34963
    }
  ],
  "buffers": [
    {
      "uri": "data:application/octet-stream;base64,",
      "byteLength": 2365670
    }
  ]
}